<?xml version="1.0"?>
<svg xmlns="http://www.w3.org/2000/svg" id="Layer_1" data-name="Layer 1" viewBox="0 0 128 128" width="512" height="512"><title>FLAME</title><path d="M64.852,20.585a1.25,1.25,0,0,0-2.089,1.089,21.292,21.292,0,0,1-7.18,17.684c-.941.823-1.985,1.706-3.1,2.647-2.191,1.852-4.674,3.951-7.156,6.262a1.25,1.25,0,1,0,1.7,1.83c2.439-2.27,4.9-4.349,7.067-6.183,1.124-.95,2.179-1.842,3.13-2.675a23.544,23.544,0,0,0,8.094-16.7c7.3,7.316,30.466,32.076,30.466,51.644a31.783,31.783,0,0,1-14.8,26.869c5.3-10.189,1.476-22.131,1.286-22.7a1.25,1.25,0,0,0-2.374.782c.048.147,4.743,14.865-3.706,24.547a1.25,1.25,0,0,0,1.439,1.969A34.287,34.287,0,0,0,98.288,76.184C98.288,51.994,66.217,21.856,64.852,20.585Z"/><path d="M76.35,82.11a1.258,1.258,0,0,0-1.456-1c-4.517.837-7.925.554-9.86-.817-9.916-7.029-2.792-25.393-2.719-25.577a1.25,1.25,0,0,0-1.943-1.437c-.48.385-11.8,9.637-14.978,28.971A42.505,42.505,0,0,0,47.4,103.292,31.976,31.976,0,0,1,32.212,76.184c0-5.915,2.357-11.791,7.206-17.963a1.25,1.25,0,1,0-1.966-1.545c-5.208,6.63-7.74,13.011-7.74,19.508A34.468,34.468,0,0,0,49.29,107.16a1.25,1.25,0,0,0,1.681-1.632A40.709,40.709,0,0,1,47.86,82.651,49.641,49.641,0,0,1,58.422,58.872c-1.608,6.559-2.858,17.771,5.165,23.458,2.534,1.8,6.492,2.21,11.761,1.237A1.25,1.25,0,0,0,76.35,82.11Z"/><path d="M41.957,54.616a1.248,1.248,0,0,0,.91-.393l.351-.372a1.25,1.25,0,1,0-1.81-1.725l-.362.382a1.25,1.25,0,0,0,.91,2.107Z"/></svg>
