<?xml version="1.0" encoding="iso-8859-1"?>
<!-- Generator: Adobe Illustrator 19.0.0, SVG Export Plug-In . SVG Version: 6.00 Build 0)  -->
<svg version="1.1" id="Capa_1" xmlns="http://www.w3.org/2000/svg" xmlns:xlink="http://www.w3.org/1999/xlink" x="0px" y="0px"
	 viewBox="0 0 398.92 398.92" style="enable-background:new 0 0 398.92 398.92;" xml:space="preserve">
<g>
	<g>
		<path d="M353.24,3.2c-0.973-1.886-2.88-3.106-5-3.2c-2.204,0.016-4.219,1.246-5.24,3.2c-25.88,49.52-84,81.8-115,96
			c5.254-10.733,8.919-22.172,10.88-33.96c0.495-3.232-1.724-6.253-4.956-6.747c-0.438-0.067-0.882-0.085-1.324-0.053
			c-69,4.76-118.32,27.24-147.04,66.88c-41.96,57.72-24.2,130.16-23.4,133.12c0.128,0.418,0.303,0.82,0.52,1.2
			c-23.36,33.36-38.76,76.92-36,133.64c0.15,3.16,2.757,5.644,5.92,5.64h0.32c3.266-0.15,5.792-2.919,5.643-6.185
			c-0.001-0.018-0.002-0.037-0.003-0.055c-2.68-53.44,11.32-94.48,32.8-125.96c30.04,20.96,67.48,31.72,111.64,31.72
			c44.303-0.735,88.1-9.546,129.24-26c2.993-1.315,4.354-4.808,3.039-7.801c-0.596-1.358-1.681-2.442-3.039-3.039l-41.6-18.92
			c48-25.44,79.36-59.52,93.48-101.4C387.64,71.52,354.68,5.96,353.24,3.2z M353.08,137.64c-14.16,41.84-47.32,75.48-98.52,100
			c-2.971,1.364-4.274,4.879-2.91,7.85c0.591,1.287,1.623,2.319,2.91,2.91l40,18.12c-35.85,12.591-73.489,19.344-111.48,20
			c-41.6,0-76.68-9.96-104.68-29.44c12.189-15.514,26.487-29.246,42.48-40.8c7.68,12,21.08,20.32,40,24.8
			c0.452,0.051,0.908,0.051,1.36,0c3.243-0.418,5.533-3.386,5.115-6.628c-0.278-2.16-1.721-3.993-3.755-4.772
			c-16-3.8-27.08-10.52-33.04-20c13.935-9.138,28.66-17.01,44-23.52c5.6,12,17.28,20,34.84,24c0.452,0.054,0.908,0.054,1.36,0
			c3.269,0.079,5.982-2.507,6.061-5.776c0.069-2.868-1.929-5.374-4.741-5.944c-13.48-3.12-22.32-8.84-26.48-17
			c14.347-5.583,29.148-9.919,44.24-12.96c3.225-0.574,5.374-3.655,4.8-6.88c-0.574-3.225-3.655-5.374-6.88-4.8
			c-15.328,3.268-30.354,7.818-44.92,13.6c0.066-8.974,2.303-17.798,6.52-25.72c1.624-2.839,0.639-6.456-2.2-8.08
			s-6.456-0.639-8.08,2.2c-0.48,0.88-10.2,18.2-7.68,36.28c-15.661,6.85-30.715,15.012-45,24.4c-4.52-20,7.36-41.64,7.48-41.88
			c1.378-2.965,0.091-6.486-2.874-7.863c-2.64-1.227-5.78-0.352-7.406,2.063c-0.68,1.24-16,29.08-7.44,54.56
			c-16.428,11.72-31.248,25.545-44.08,41.12c-3.2-20-7.72-72.56,23.08-115.04c25.52-35.36,69.36-55.96,130.44-61.48
			c-2.48,10.28-8.2,28.6-19.36,37.72c-2.527,2.075-2.893,5.806-0.818,8.332c1.579,1.922,4.191,2.653,6.538,1.828
			c4-1.44,93.92-33.96,135.48-99.72c8.16,20.76,22.28,69.2,5.6,118.52H353.08z"/>
	</g>
</g>
<g>
</g>
<g>
</g>
<g>
</g>
<g>
</g>
<g>
</g>
<g>
</g>
<g>
</g>
<g>
</g>
<g>
</g>
<g>
</g>
<g>
</g>
<g>
</g>
<g>
</g>
<g>
</g>
<g>
</g>
</svg>
