<?xml version="1.0"?>
<svg xmlns="http://www.w3.org/2000/svg" id="Layer_1" data-name="Layer 1" viewBox="0 0 128 128" width="512" height="512"><title>SPROUT</title><path d="M105.881,96.1a9.847,9.847,0,0,0-12.264-9.55,14.6,14.6,0,0,0-11.779-9.478,1.25,1.25,0,1,0-.316,2.48A12.074,12.074,0,0,1,91.59,88.447a1.25,1.25,0,0,0,1.68.845,7.35,7.35,0,1,1,2.76,14.162H79.375a1.25,1.25,0,0,0,0,2.5h25a1.25,1.25,0,0,0,0-2.5h-1.81A9.819,9.819,0,0,0,105.881,96.1Z"/><path d="M68.043,68.559A28.622,28.622,0,0,1,74.6,52.4,13.034,13.034,0,0,0,83.54,56.5c.093,0,.19.005.292.005,2.948,0,9-1.474,10.769-6.3a22.932,22.932,0,0,0,1.063-9.085c-.125-4.213-.216-7.257,4.609-10.178a1.25,1.25,0,0,0-.6-2.318c-.8-.029-19.817-.63-26.644,8.558a10.707,10.707,0,0,0-2.138,6.341,1.25,1.25,0,0,0,1.241,1.259h.009a1.25,1.25,0,0,0,1.25-1.241,8.108,8.108,0,0,1,1.645-4.868c4.379-5.9,15.211-7.215,20.908-7.492-2.984,3.131-2.881,6.618-2.78,10.014a20.6,20.6,0,0,1-.912,8.153c-1.369,3.744-6.769,4.736-8.623,4.659A10.57,10.57,0,0,1,76.251,50.5a37.671,37.671,0,0,1,9.657-7.476,1.25,1.25,0,0,0-1.09-2.25c-.64.309-13.7,6.794-17.99,20.721a37.564,37.564,0,0,0-7.6-14.168c3.333-4.943,3.394-10.871.072-15.343-7.914-10.653-30.032-9.955-30.967-9.919a1.25,1.25,0,0,0-.6,2.318c5.746,3.479,5.638,7.088,5.49,12.085a26.633,26.633,0,0,0,1.23,10.543c2.026,5.541,8.991,7.23,12.386,7.23q.176,0,.338-.006a14.479,14.479,0,0,0,5.984-1.541,1.25,1.25,0,0,0-1.117-2.236,12,12,0,0,1-4.957,1.28c-2.179.084-8.645-1.1-10.286-5.585-1.262-3.453-1.169-6.583-1.079-9.61.126-4.238.246-8.283-3.554-11.934,6.531.271,19.818,1.721,25.126,8.867a10.5,10.5,0,0,1,.205,11.912,46.725,46.725,0,0,0-11.9-9.142,1.25,1.25,0,0,0-1.09,2.25c.194.094,19.116,9.521,20.936,29.295A16.065,16.065,0,0,0,46.353,80.416a12.775,12.775,0,0,0-8.73,3.612,11.184,11.184,0,0,0-4.145-.791,11.349,11.349,0,0,0-7.091,20.218H18.118a1.25,1.25,0,0,0,0,2.5H73.75a1.25,1.25,0,0,0,0-2.5H33.478a8.859,8.859,0,1,1,0-17.718,8.766,8.766,0,0,1,3.89.91,1.25,1.25,0,0,0,1.483-.29,10.276,10.276,0,0,1,7.093-3.412c.019,0,.035.013.054.014a8.571,8.571,0,0,1,6.251,3.232,1.25,1.25,0,1,0,1.958-1.555,11.075,11.075,0,0,0-5.4-3.681,13.616,13.616,0,0,1,26.25-1.8,1.25,1.25,0,0,0,2.365-.811A16.136,16.136,0,0,0,68.043,68.559Z"/><path d="M109.883,103.454H109.5a1.25,1.25,0,0,0,0,2.5h.383a1.25,1.25,0,0,0,0-2.5Z"/><path d="M55.106,88.981a1.249,1.249,0,0,0-1.076,1.4,8.724,8.724,0,0,1,.074,1.13,1.25,1.25,0,1,0,2.5,0,11.225,11.225,0,0,0-.1-1.457A1.252,1.252,0,0,0,55.106,88.981Z"/></svg>
